Coordinates
version=1
nRows=23
nColumns=38
inDegrees=no

Units are S.I. units (second, meters, Newtons, ...)
If the header above contains a line with 'inDegrees', this indicates whether rotational values are in degrees (yes) or radians (no).

endheader
time	pelvis_tilt	pelvis_list	pelvis_rotation	pelvis_tx	pelvis_ty	pelvis_tz	hip_flexion_r	hip_adduction_r	hip_rotation_r	knee_angle_r	ankle_angle_r	subtalar_angle_r	mtp_angle_r	hip_flexion_l	hip_adduction_l	hip_rotation_l	knee_angle_l	ankle_angle_l	subtalar_angle_l	mtp_angle_l	lumbar_extension	lumbar_bending	lumbar_rotation	arm_flex_r	arm_add_r	arm_rot_r	elbow_flex_r	pro_sup_r	wrist_flex_r	wrist_dev_r	arm_flex_l	arm_add_l	arm_rot_l	elbow_flex_l	pro_sup_l	wrist_flex_l	wrist_dev_l
8.16	3.06179	1.54856	-1.27316	0.682344	0.487766	1.07625	-0.0114458	-0.0138183	-0.133258	0.289219	-0.208705	0	0	0.0117065	-0.125484	-0.336324	0.435283	-0.221	0	0	-0.411771	-0.0368618	-0.0969093	-0.0454934	-0.524376	0.381368	1.37429	1.08664	0	0	-0.369781	-0.423759	-0.0760269	1.59014	1.5708	0	0
8.17	3.04641	1.54921	-1.25679	0.682209	0.487822	1.07622	-0.0110354	-0.0136965	-0.134369	0.288891	-0.208576	0	0	0.0132999	-0.12549	-0.334059	0.436273	-0.220641	0	0	-0.41244	-0.0359912	-0.10036	-0.0317638	-0.528108	0.387723	1.37843	1.0757	0	0	-0.362435	-0.429087	-0.0761537	1.59746	1.5708	0	0
8.18	3.026	1.55022	-1.23533	0.682094	0.487834	1.07617	-0.0100876	-0.0136228	-0.135543	0.288777	-0.208735	0	0	0.0155334	-0.125498	-0.331478	0.437695	-0.22042	0	0	-0.412444	-0.0348729	-0.103907	-0.0174122	-0.531609	0.393762	1.3822	1.06476	0	0	-0.354448	-0.434692	-0.0760081	1.60404	1.5708	0	0
8.19	2.99454	1.55199	-1.20414	0.682005	0.488039	1.07603	-0.00825574	-0.013853	-0.135772	0.288757	-0.209068	0	0	0.0176975	-0.125313	-0.331015	0.438313	-0.220452	0	0	-0.410786	-0.0339595	-0.106229	-0.00298767	-0.535337	0.399951	1.38525	1.05439	0	0	-0.346177	-0.439971	-0.075283	1.60934	1.5708	0	0
8.2	2.9534	1.55427	-1.16409	0.681908	0.488368	1.07586	-0.00592147	-0.0144016	-0.135495	0.288604	-0.209413	0	0	0.0196119	-0.124734	-0.331755	0.437848	-0.22068	0	0	-0.40821	-0.0331123	-0.107858	0.0116529	-0.539284	0.405922	1.38796	1.04523	0	0	-0.337318	-0.445015	-0.074102	1.61369	1.5708	0	0
8.21	2.9009	1.55676	-1.11256	0.681793	0.488679	1.0757	-0.00342043	-0.0150912	-0.135274	0.288282	-0.209714	0	0	0.0218384	-0.124028	-0.332281	0.437299	-0.220813	0	0	-0.406029	-0.0322999	-0.107633	0.0232245	-0.541755	0.406506	1.3913	1.05691	0	0	-0.325534	-0.451085	-0.0697622	1.61733	1.5653	0	0
8.22	2.82164	1.55922	-1.03415	0.681689	0.488951	1.07556	-0.000827796	-0.0157145	-0.135114	0.287886	-0.209982	0	0	0.0242125	-0.123311	-0.332244	0.436774	-0.22091	0	0	-0.403079	-0.031481	-0.109799	0.0407583	-0.545878	0.415392	1.39254	1.04977	0	0	-0.315457	-0.456511	-0.0676159	1.62124	1.55616	0	0
8.23	2.66093	1.56172	-0.874094	0.681544	0.489191	1.07538	0.00216246	-0.0161248	-0.134995	0.287506	-0.210176	0	0	0.0270022	-0.122691	-0.331553	0.436305	-0.221136	0	0	-0.399496	-0.0303384	-0.112494	0.0606889	-0.550541	0.427172	1.39241	1.04113	0	0	-0.304987	-0.462279	-0.0646584	1.62479	1.54393	0	0
8.24	2.39306	1.56324	-0.606537	0.68132	0.48937	1.07517	0.00474772	-0.0160772	-0.135578	0.287367	-0.210212	0	0	0.0295301	-0.122652	-0.330812	0.435999	-0.221262	0	0	-0.395443	-0.0279976	-0.116067	0.0835463	-0.556303	0.442881	1.39105	1.02803	0	0	-0.294241	-0.468442	-0.0607408	1.62738	1.52755	0	0
8.25	2.1476	1.56409	-0.360772	0.681039	0.48949	1.07498	0.00627335	-0.0164245	-0.137328	0.286445	-0.216071	0	0	0.0313405	-0.122164	-0.329245	0.435356	-0.221736	0	0	-0.388873	-0.0250652	-0.125885	0.121234	-0.565691	0.480993	1.38313	0.97009	0	0	-0.288437	-0.474425	-0.0601507	1.62866	1.49647	0	0
8.26	2.47176	1.52042	-0.755877	0.686771	0.481898	1.0824	-0.00719941	0.00324899	-0.169512	0.274467	-0.2798	0	0	-0.015776	-0.154389	-0.400506	0.423195	-0.231045	0	0	-0.4557	-0.00532816	-0.0590715	0.194423	-0.603008	0.514476	1.39909	0.935454	0	0	-0.247141	-0.453592	-0.0644678	1.63799	1.49048	0	0
8.27	2.9515	1.54642	-1.23286	0.686832	0.483513	1.07752	0.0176794	-0.0132964	-0.031618	0.327572	-0.199377	0	0	-0.00381317	-0.123382	-0.401117	0.425709	-0.225094	0	0	-0.42733	-0.0323365	-0.0813108	0.220158	-0.599542	0.546837	1.38857	0.909717	0	0	-0.251215	-0.472382	-0.0645832	1.64271	1.46051	0	0
8.28	1.15218	1.56477	0.634777	0.680416	0.489802	1.07447	0.0123799	-0.019208	-0.141647	0.287426	-0.208473	0	0	0.0367612	-0.118979	-0.325368	0.433506	-0.22135	0	0	-0.374997	-0.018539	-0.137975	0.202585	-0.579122	0.541227	1.36404	0.919962	0	0	-0.248235	-0.495005	-0.0417444	1.62212	1.44428	0	0
8.29	2.91519	1.5481	-1.19829	0.686633	0.483533	1.07744	0.0199675	-0.0136033	-0.0315513	0.327919	-0.199549	0	0	-0.00279933	-0.122731	-0.401463	0.424176	-0.22511	0	0	-0.418136	-0.0253117	-0.0900918	0.288854	-0.60669	0.605662	1.3668	0.859093	0	0	-0.224199	-0.486392	-0.0524506	1.63243	1.41868	0	0
8.3	2.89897	1.54887	-1.18294	0.686513	0.48355	1.07741	0.0208759	-0.0138283	-0.0314656	0.327504	-0.201578	0	0	-0.00245265	-0.122375	-0.401741	0.423276	-0.225096	0	0	-0.413765	-0.0217755	-0.0927478	0.321371	-0.6089	0.632914	1.3549	0.847754	0	0	-0.207644	-0.493399	-0.0437049	1.62472	1.40119	0	0
8.31	0.835313	1.5633	0.94888	0.680163	0.489826	1.07434	0.0155778	-0.0205379	-0.141319	0.287606	-0.212027	0	0	0.0377749	-0.117459	-0.32622	0.43086	-0.221397	0	0	-0.359418	-0.00929357	-0.152416	0.31091	-0.589132	0.640079	1.32442	0.838253	0	0	-0.205415	-0.51498	-0.0202449	1.60104	1.38077	0	0
8.32	0.747051	1.56288	1.03654	0.680052	0.489775	1.07432	0.0166519	-0.0212082	-0.1415	0.288035	-0.211333	0	0	0.0383339	-0.116851	-0.326385	0.430432	-0.221782	0	0	-0.354239	-0.00590596	-0.156541	0.347684	-0.590602	0.673693	1.30901	0.813541	0	0	-0.188758	-0.521937	-0.0106585	1.59167	1.36364	0	0
8.33	0.686026	1.56258	1.0971	0.67988	0.489685	1.07432	0.0176067	-0.0219501	-0.142047	0.288876	-0.210485	0	0	0.0387761	-0.116199	-0.326569	0.430096	-0.222368	0	0	-0.349063	-0.00199733	-0.16065	0.385585	-0.591293	0.709335	1.2923	0.787929	0	0	-0.171201	-0.528886	0.000116536	1.58109	1.34466	0	0
8.34	0.727236	1.56296	1.05461	0.679809	0.48942	1.07441	0.0179088	-0.0221543	-0.140747	0.290011	-0.209346	0	0	0.0383902	-0.11626	-0.3279	0.430625	-0.223071	0	0	-0.345861	0.00226112	-0.163773	0.424543	-0.591352	0.74509	1.27547	0.75814	0	0	-0.152456	-0.53581	0.0110655	1.57019	1.32545	0	0
8.35	2.88929	1.54926	-1.17505	0.685655	0.482922	1.07759	0.0223088	-0.0154207	-0.0332721	0.327836	-0.203543	0	0	-0.00193902	-0.121062	-0.401454	0.422725	-0.226449	0	0	-0.390071	0.00159983	-0.111653	0.51672	-0.608478	0.818181	1.26843	0.718563	0	0	-0.117413	-0.531139	0.011878	1.56744	1.30066	0	0
8.36	1.07603	1.56437	0.698878	0.680452	0.48857	1.07485	0.0173725	-0.020401	-0.128367	0.29048	-0.213053	0	0	0.0349122	-0.117648	-0.334476	0.430504	-0.223372	0	0	-0.340691	0.0104225	-0.162683	0.501967	-0.588853	0.818111	1.23821	0.70981	0	0	-0.107139	-0.551299	0.0420284	1.54128	1.27659	0	0
8.37	1.0955	1.56424	0.677572	0.680473	0.4885	1.07492	0.0176427	-0.0202278	-0.126096	0.290248	-0.213946	0	0	0.0344796	-0.117901	-0.336808	0.430371	-0.223566	0	0	-0.335829	0.0143263	-0.163297	0.538183	-0.5854	0.854753	1.21768	0.687623	0	0	-0.0848569	-0.557874	0.0579994	1.52465	1.25606	0	0
8.38	1.15367	1.56441	0.618852	0.680262	0.488401	1.07499	0.0174662	-0.020562	-0.126633	0.29049	-0.214811	0	0	0.0340133	-0.117841	-0.337554	0.430471	-0.224018	0	0	-0.330704	0.0189048	-0.164342	0.574306	-0.581439	0.893152	1.19581	0.66504	0	0	-0.0608081	-0.56441	0.0766951	1.50564	1.2374	0	0
